<svg width="40" height="41" viewBox="0 0 40 41" fill="none" xmlns="http://www.w3.org/2000/svg">
<rect x="0.25" y="1.06641" width="39.5" height="39.5" rx="7.75" fill="#F5F5F6"/>
<path d="M20 27.3164C23.5899 27.3164 26.5 24.4063 26.5 20.8164C26.5 17.2266 23.5899 14.3164 20 14.3164C16.4101 14.3164 13.5 17.2266 13.5 20.8164C13.5 24.4063 16.4101 27.3164 20 27.3164Z" stroke="#3851DD" stroke-width="1.5" stroke-linecap="round" stroke-linejoin="round"/>
<g opacity="0.4">
<path d="M27.01 13.8064L27.14 13.6764L27.01 13.8064ZM12.86 27.9564L12.99 27.8264L12.86 27.9564ZM20 10.8964V10.8164V10.8964ZM20 30.8164V30.7364V30.8164ZM10.08 20.8164H10H10.08ZM30 20.8164H29.92H30ZM12.99 13.8064L12.86 13.6764L12.99 13.8064ZM27.14 27.9564L27.01 27.8264L27.14 27.9564Z" fill="#3851DD"/>
<path d="M27.14 27.9564L27.01 27.8264M27.01 13.8064L27.14 13.6764L27.01 13.8064ZM12.86 27.9564L12.99 27.8264L12.86 27.9564ZM20 10.8964V10.8164V10.8964ZM20 30.8164V30.7364V30.8164ZM10.08 20.8164H10H10.08ZM30 20.8164H29.92H30ZM12.99 13.8064L12.86 13.6764L12.99 13.8064Z" stroke="#3851DD" stroke-width="2" stroke-linecap="round" stroke-linejoin="round"/>
</g>
<rect x="0.25" y="1.06641" width="39.5" height="39.5" rx="7.75" stroke="#DADADD" stroke-width="0.5"/>
</svg>
